<svg width="192" height="192" viewBox="0 0 192 192" fill="none" xmlns="http://www.w3.org/2000/svg">
  <!-- Character body (blue) -->
  <circle cx="96" cy="96" r="60" fill="#4A90E2" stroke="#2E5C8A" stroke-width="3"/>
  
  <!-- Crown -->
  <polygon points="66,46 96,36 126,46 126,56 66,56" fill="#FFD700" stroke="#FFA500" stroke-width="2"/>
  <circle cx="76" cy="51" r="3" fill="#FF6B6B"/>
  <circle cx="96" cy="51" r="3" fill="#FF6B6B"/>
  <circle cx="116" cy="51" r="3" fill="#FF6B6B"/>
  
  <!-- Eyes -->
  <circle cx="82" cy="86" r="6" fill="white"/>
  <circle cx="110" cy="86" r="6" fill="white"/>
  <circle cx="82" cy="86" r="3" fill="black"/>
  <circle cx="110" cy="86" r="3" fill="black"/>
  
  <!-- Smile -->
  <path d="M 76 106 Q 96 126 116 106" stroke="white" stroke-width="4" fill="none" stroke-linecap="round"/>
  
  <!-- Arms -->
  <circle cx="46" cy="96" r="12" fill="#4A90E2" stroke="#2E5C8A" stroke-width="2"/>
  <circle cx="146" cy="96" r="12" fill="#4A90E2" stroke="#2E5C8A" stroke-width="2"/>
  
  <!-- Legs -->
  <ellipse cx="76" cy="156" rx="12" ry="20" fill="#FFD700" stroke="#FFA500" stroke-width="2"/>
  <ellipse cx="116" cy="156" rx="12" ry="20" fill="#FFD700" stroke="#FFA500" stroke-width="2"/>
  
  <!-- Cleaning tool in hand -->
  <line x1="146" y1="96" x2="166" y2="76" stroke="#8B4513" stroke-width="3"/>
  <circle cx="166" cy="76" r="8" fill="#32CD32"/>
</svg>
